# xmcd
#
# Track frame offsets:
#	150
#	17872
#	34125
#	47223
#	62593
#	76126
#	87500
#	110942
#	124548
#	139225
#	152947
#	166479
#
# Disc length: 2432 seconds
#
# Revision: 1
# Processed by: cddbd v1.5.1PL2 Copyright (c) Steve Scherf et al.
# Submitted via: audiograbber 1.83.01
#
DISCID=a4097e0c
DTITLE=Jimmy Witherspoon - Roots (w Ben Webster) (1962)
DYEAR=1962
DGENRE=
TTITLE0=I'd Rather Dring Muddy Water
TTITLE1=I'm Gonna Move to the Outskirts of Town
TTITLE2=Key to the Highway
TTITLE3=Did You Ever
TTITLE4=Confessin' The Blues
TTITLE5=Nobody Knows You When You're Down and Out
TTITLE6=Your Red Wagon
TTITLE7=Rain Is Such A Lonesome Sound
TTITLE8=Cherry Red
TTITLE9=It's A Low Down Dirty Shame
TTITLE10=Just A Dream
TTITLE11=Please, Mr. Webster
EXTD=
EXTT0=
EXTT1=
EXTT2=
EXTT3=
EXTT4=
EXTT5=
EXTT6=
EXTT7=
EXTT8=
EXTT9=
EXTT10=
EXTT11=
PLAYORDER=
